<?xml version="1.0" encoding="utf-8"?>
<!-- Generator: Adobe Illustrator 16.0.0, SVG Export Plug-In . SVG Version: 6.00 Build 0)  -->
<!DOCTYPE svg PUBLIC "-//W3C//DTD SVG 1.1//EN" "http://www.w3.org/Graphics/SVG/1.1/DTD/svg11.dtd">
<svg version="1.1" id="Capa_1" xmlns="http://www.w3.org/2000/svg" xmlns:xlink="http://www.w3.org/1999/xlink" x="0px" y="0px"
	 width="140px" height="140px" viewBox="0 0 140 140" enable-background="new 0 0 140 140" xml:space="preserve">
<g>
	<path fill-rule="evenodd" clip-rule="evenodd" fill="#FFCF53" d="M140.001,70c0-38.56-31.449-70-70.008-70C31.449,0,0,31.44,0,70
		s31.449,70,69.993,70C108.552,140,140.001,108.56,140.001,70z"/>
	<polygon fill-rule="evenodd" clip-rule="evenodd" fill="#A8B0B7" points="88.217,99.938 51.783,99.938 48.208,113.078 
		91.792,113.078 	"/>
	<path fill-rule="evenodd" clip-rule="evenodd" fill="#FFFFFF" d="M96.308,118.214v-2.495c0-2.467-2.029-4.49-4.488-4.49H48.181
		c-2.459,0-4.489,2.023-4.489,4.49v2.495H96.308z"/>
	<path fill-rule="evenodd" clip-rule="evenodd" fill="#153D55" d="M119.007,88.408V36.924c0-1.877-1.518-3.406-3.412-3.406H24.393
		c-1.882,0-3.4,1.529-3.4,3.406v51.484H119.007z"/>
	<path fill-rule="evenodd" clip-rule="evenodd" fill="#FFFFFF" d="M20.993,87.658v11.113c0,1.892,1.518,3.421,3.4,3.421h91.202
		c1.895,0,3.412-1.529,3.412-3.421V87.658H20.993z"/>
	<path fill-rule="evenodd" clip-rule="evenodd" fill="#A8B0B7" d="M73.326,94.924c0-1.837-1.492-3.325-3.333-3.325
		c-1.828,0-3.319,1.488-3.319,3.325s1.491,3.325,3.319,3.325C71.834,98.249,73.326,96.761,73.326,94.924z"/>
	<g>
		<rect x="41.784" y="46.578" fill-rule="evenodd" clip-rule="evenodd" fill="#87D5F7" width="38.611" height="3.901"/>
		<rect x="86.766" y="46.578" fill-rule="evenodd" clip-rule="evenodd" fill="#87D5F7" width="11.45" height="3.901"/>
		<rect x="41.784" y="55.359" fill-rule="evenodd" clip-rule="evenodd" fill="#87D5F7" width="23.585" height="3.915"/>
		<rect x="71.74" y="55.359" fill-rule="evenodd" clip-rule="evenodd" fill="#87D5F7" width="26.476" height="3.915"/>
		<rect x="58.085" y="64.154" fill-rule="evenodd" clip-rule="evenodd" fill="#87D5F7" width="40.13" height="3.901"/>
		<rect x="41.784" y="72.937" fill-rule="evenodd" clip-rule="evenodd" fill="#87D5F7" width="38.611" height="3.914"/>
		<rect x="86.766" y="72.937" fill-rule="evenodd" clip-rule="evenodd" fill="#87D5F7" width="11.45" height="3.914"/>
		<rect x="41.784" y="64.154" fill-rule="evenodd" clip-rule="evenodd" fill="#87D5F7" width="11.45" height="3.901"/>
	</g>
</g>
<g>
</g>
<g>
</g>
<g>
</g>
<g>
</g>
<g>
</g>
<g>
</g>
<g>
</g>
<g>
</g>
<g>
</g>
<g>
</g>
<g>
</g>
<g>
</g>
<g>
</g>
<g>
</g>
<g>
</g>
</svg>
