<?xml version="1.0" encoding="utf-8"?>
<!-- Generator: Adobe Illustrator 16.0.0, SVG Export Plug-In . SVG Version: 6.00 Build 0)  -->
<!DOCTYPE svg PUBLIC "-//W3C//DTD SVG 1.1//EN" "http://www.w3.org/Graphics/SVG/1.1/DTD/svg11.dtd">
<svg version="1.1" id="Capa_1" xmlns="http://www.w3.org/2000/svg" xmlns:xlink="http://www.w3.org/1999/xlink" x="0px" y="0px"
	 width="140px" height="140px" viewBox="0 0 140 140" enable-background="new 0 0 140 140" xml:space="preserve">
<g>
	<path fill-rule="evenodd" clip-rule="evenodd" fill="#47BEEB" d="M140,70c0-38.56-31.451-70-70-70C31.438,0,0,31.44,0,70
		c0,38.56,31.438,70,70,70C108.549,140,140,108.56,140,70z"/>
	<path fill-rule="evenodd" clip-rule="evenodd" fill="#153D55" d="M118.294,48.87v-8.567c0-3.459-2.81-6.261-6.264-6.261H28.186
		c-3.575,0-6.451,2.882-6.451,6.462v8.339h96.559V48.87z"/>
	<path fill-rule="evenodd" clip-rule="evenodd" fill="#FFFFFF" d="M118.294,47.074v52.611c0,3.472-2.81,6.274-6.264,6.274h-84.06
		c-3.468,0-6.263-2.803-6.263-6.274V47.074h32.648l3.158-4.72H74.96l3.131,4.72H118.294z"/>
	<polygon fill-rule="evenodd" clip-rule="evenodd" fill="#A8B0B7" points="30.659,47.074 54.355,47.074 51.224,42.354 
		33.791,42.354 	"/>
	<path fill-rule="evenodd" clip-rule="evenodd" fill="#F16950" d="M112.138,40.947c0-1.542-1.264-2.803-2.796-2.803
		c-1.546,0-2.81,1.261-2.81,2.803c0,1.541,1.264,2.802,2.81,2.802C110.874,43.749,112.138,42.488,112.138,40.947z"/>
	<path fill-rule="evenodd" clip-rule="evenodd" fill="#CDD4DF" d="M101.384,40.947c0-1.542-1.263-2.803-2.809-2.803
		c-1.545,0-2.795,1.261-2.795,2.803c0,1.541,1.25,2.802,2.795,2.802C100.121,43.749,101.384,42.488,101.384,40.947z"/>
	<rect x="30.659" y="54.193" fill-rule="evenodd" clip-rule="evenodd" fill="#5CC3B5" width="78.71" height="20.875"/>
	<rect x="30.659" y="81.114" fill-rule="evenodd" clip-rule="evenodd" fill="#153D55" width="24.866" height="16.411"/>
	<rect x="62.312" y="81.114" fill-rule="evenodd" clip-rule="evenodd" fill="#87D5F7" width="22.849" height="16.411"/>
	<rect x="92.123" y="81.114" fill-rule="evenodd" clip-rule="evenodd" fill="#F16950" width="17.219" height="16.411"/>
</g>
<g>
</g>
<g>
</g>
<g>
</g>
<g>
</g>
<g>
</g>
<g>
</g>
<g>
</g>
<g>
</g>
<g>
</g>
<g>
</g>
<g>
</g>
<g>
</g>
<g>
</g>
<g>
</g>
<g>
</g>
</svg>
