<?xml version="1.0" encoding="utf-8"?>
<!-- Generator: Adobe Illustrator 16.0.0, SVG Export Plug-In . SVG Version: 6.00 Build 0)  -->
<!DOCTYPE svg PUBLIC "-//W3C//DTD SVG 1.1//EN" "http://www.w3.org/Graphics/SVG/1.1/DTD/svg11.dtd">
<svg version="1.1" id="Capa_1" xmlns="http://www.w3.org/2000/svg" xmlns:xlink="http://www.w3.org/1999/xlink" x="0px" y="0px"
	 width="140px" height="140px" viewBox="0 0 140 140" enable-background="new 0 0 140 140" xml:space="preserve">
<g>
	<path fill-rule="evenodd" clip-rule="evenodd" fill="#F16950" d="M140.001,70c0-38.56-31.438-70-70.001-70C31.451,0,0,31.44,0,70
		s31.451,70,70,70C108.562,140,140.001,108.56,140.001,70z"/>
	<g>
		<path fill-rule="evenodd" clip-rule="evenodd" fill="#E3E8ED" d="M119.65,103.438c0,2.748-1.103,5.215-2.903,7.012
			c-1.802,1.797-4.274,2.909-7.017,2.909H30.242c-5.457,0-9.892-4.438-9.892-9.895c0-1.194,0.967-2.158,2.164-2.158h32.433
			l2.688,4.183h24.705l2.688-4.183h32.434C118.709,101.307,119.65,102.271,119.65,103.438z"/>
		<path fill-rule="evenodd" clip-rule="evenodd" fill="#E3E8ED" d="M103.44,96.667H36.572c-4.221,0-7.635-3.405-7.635-7.615V48.991
			c0-4.223,3.414-7.629,7.635-7.629h66.868c4.207,0,7.621,3.406,7.621,7.629v40.035C111.062,93.262,107.647,96.667,103.44,96.667z"
			/>
	</g>
	<rect x="36.035" y="48.494" fill-rule="evenodd" clip-rule="evenodd" fill="#153D55" width="67.903" height="41.055"/>
	<rect x="85.081" y="34.766" fill-rule="evenodd" clip-rule="evenodd" fill="#5CC3B5" width="33.078" height="34.349"/>
	<g>
		<path fill-rule="evenodd" clip-rule="evenodd" fill="#FFFFFF" d="M118.159,35.852v-2.829c0-1.81-1.466-3.271-3.28-3.271H88.36
			c-1.801,0-3.279,1.461-3.279,3.271v2.829H118.159z"/>
		<path fill-rule="evenodd" clip-rule="evenodd" fill="#FFFFFF" d="M85.081,68.619v4.518c0,1.797,1.479,3.273,3.279,3.273h26.519
			c1.814,0,3.28-1.477,3.28-3.273v-4.518H85.081z"/>
	</g>
	<path fill-rule="evenodd" clip-rule="evenodd" fill="#E3E8ED" d="M103.44,72.521c0-0.992-0.82-1.798-1.8-1.798
		c-0.995,0-1.803,0.806-1.803,1.798c0,0.991,0.808,1.81,1.803,1.81C102.62,74.331,103.44,73.513,103.44,72.521z"/>
	<g>
		<path fill-rule="evenodd" clip-rule="evenodd" fill="#CDD4DF" d="M107.957,33.572h-7.595c-0.443,0-0.806-0.362-0.806-0.805
			c0-0.443,0.362-0.805,0.806-0.805h7.595c0.443,0,0.806,0.362,0.806,0.805C108.763,33.21,108.4,33.572,107.957,33.572z"/>
		<path fill-rule="evenodd" clip-rule="evenodd" fill="#CDD4DF" d="M96.868,33.572H95.31c-0.444,0-0.807-0.362-0.807-0.805
			c0-0.443,0.362-0.805,0.807-0.805h1.559c0.443,0,0.807,0.362,0.807,0.805C97.647,33.21,97.312,33.572,96.868,33.572z"/>
	</g>
</g>
<g>
</g>
<g>
</g>
<g>
</g>
<g>
</g>
<g>
</g>
<g>
</g>
<g>
</g>
<g>
</g>
<g>
</g>
<g>
</g>
<g>
</g>
<g>
</g>
<g>
</g>
<g>
</g>
<g>
</g>
</svg>
